<?xml version="1.0" encoding="utf-8"?>
<!-- Generator: Adobe Illustrator 23.0.6, SVG Export Plug-In . SVG Version: 6.00 Build 0)  -->
<svg version="1.1" id="Layer_1" xmlns="http://www.w3.org/2000/svg" xmlns:xlink="http://www.w3.org/1999/xlink" x="0px" y="0px"
	 viewBox="0 0 1727.4 1218.4" style="enable-background:new 0 0 1727.4 1218.4;" xml:space="preserve">
<style type="text/css">
	.st0{fill:#FFFFFF;}
	.st1{fill:#FF113A;}
	.st2{opacity:0.26;fill:none;stroke:#FFFFFF;stroke-width:4;stroke-miterlimit:10;}
	.st3{fill:url(#SVGID_1_);stroke:#FF113A;stroke-width:12;stroke-miterlimit:10;}
</style>
<g>
	<ellipse class="st0" cx="865.7" cy="609.7" rx="829.2" ry="577.5"/>
	<ellipse class="st1" cx="865.7" cy="608.7" rx="806.3" ry="561.5"/>
	<ellipse class="st1" cx="865.7" cy="608.7" rx="582.2" ry="370.2"/>
	<g>
		<ellipse class="st2" cx="865.7" cy="608.7" rx="668.5" ry="445.1"/>
		<ellipse class="st2" cx="865.7" cy="608.7" rx="706.1" ry="478.9"/>
		<ellipse class="st2" cx="865.7" cy="608.7" rx="741.5" ry="501.4"/>
		<ellipse class="st2" cx="865.7" cy="608.7" rx="779.3" ry="531.5"/>
		<ellipse class="st2" cx="865.7" cy="608.7" rx="628.3" ry="411.3"/>
	</g>
	<g>
		<g>
			<path class="st0" d="M193.1,711l13.5,42.6l-36.9,11.7l-3.9-12.2l9.6-4.4c-9.7-4.9-15.8-15.2-19.2-25.8
				c-7.4-23.6-6.5-45.2,17.8-52.8l4.7-1.5c24.3-7.8,37.4,9.3,44.9,32.9c6.9,21.7,6.5,41.6-12.5,50.6l-8.2-26c1.7-2.2,2.4-4.9,2.2-8
				c-0.1-3.1-0.8-6.5-1.9-10.1c-3.3-10-7.9-17.9-18.3-14.4l-1.6,0.5c-10.6,3.2-9.7,12.3-6.7,22.3c3.1,9.7,5.6,15.6,11.6,17.8
				l-6.2-19.7L193.1,711z"/>
			<path class="st0" d="M274.6,805.2c7.6,11.2,4.1,27.3-7.7,34.8c-4.2,2.8-8.8,4.2-13.7,4.3c-4.8,0.1-9.3-1.1-13.4-3.6l-7.9,22.4
				l-15-22.8l7-19.4l-12.6-19.1l-13.7,9l-14.1-21.4l56.3-37L274.6,805.2z M237.4,784.5l-9.6,6.3l17.2,26.1c0.9,1.3,2,2.1,3.6,2.4
				c1.6,0.3,3,0,4.3-0.8c2.7-1.8,3.5-5.3,1.7-7.9L237.4,784.5z"/>
			<path class="st0" d="M313.4,851.2l21.8,21.4l-22.1,72.8l-20.6-20.2l4.4-11.9l-23.5-23.1l-11.8,4.6L241,874.6L313.4,851.2z
				 M290.2,883.7l12.9,12.6l7.5-20.5L290.2,883.7z"/>
			<path class="st0" d="M362,897.2l65.7,45.9l-12.2,17.5l-44.7-31.2l-4.7,6.7l39.5,27.6l-11.3,16.2l-39.5-27.6l-10.4,14.9l-21-14.7
				L362,897.2z"/>
			<path class="st0" d="M457.8,958.8l-33.1,58.7l-22.3-12.6l33.1-58.7L457.8,958.8z"/>
			<path class="st0" d="M530.4,1036.5c-10.8,20.1-31.3,18.4-52.9,8.8c-22.5-10.1-38.1-25.1-27.6-48.4l2-4.5
				c10.3-23.3,31.9-21.7,54.4-11.7c21.6,9.7,36.6,23.9,28.8,45.3l-24-10.7c0.5-7-5.5-11.4-13.6-15c-9.6-4.1-18.5-6-22.9,4.2
				l-0.7,1.5c-4.6,10,2.7,15.4,12.2,19.8c8,3.6,15.4,5.1,20.2,0L530.4,1036.5z"/>
			<path class="st0" d="M629.4,1058.7l-1.4,4.7c-7.4,24.4-28.9,25.5-52.5,18.3c-23.7-7.3-40.9-20.3-33.3-44.6l1.4-4.7
				c7.4-24.4,28.9-25.5,52.6-18.3C619.8,1021.4,636.8,1034.4,629.4,1058.7z M604.4,1052.8c3.4-10.5-4.6-15-14.5-18.2
				c-10.1-2.9-19.2-3.6-22.3,6.9l-0.5,1.6c-3.4,10.5,4.6,15,14.6,18.2c10.1,2.9,19.2,3.6,22.2-7L604.4,1052.8z"/>
			<path class="st0" d="M683.8,1064.1c17.9,4.3,43,10.3,39.8,26.9c-3.5,18.9-25.5,19.5-48.2,15.2c-22.6-4.3-40.9-10.6-39.5-31.6
				l26.4,4.9c1.9,5.7,8.4,8.2,16.3,9.7c7.8,1.5,17.7,1.9,18.7-3.2c0.5-2.9-7.2-4.8-17.3-7.2c-17.9-4.3-43-10.3-39.8-26.9
				c3.5-18.9,25.5-19.5,48.3-15.3c22.6,4.4,40.9,10.5,39.5,31.7l-26.4-4.9c-1.9-5.8-8.4-8.2-16.3-9.7c-7.8-1.5-17.7-2.1-18.7,3.2
				C666,1059.9,673.8,1061.7,683.8,1064.1z"/>
			<path class="st0" d="M843.5,1054c18.1,0.3,31,16.2,30.3,34.6c-0.4,18.3-14.3,33.6-32.3,32.8l-58.5-1.7l2-67.4L843.5,1054z
				 M838.1,1075.2l-28.1-0.8l-0.7,24.7l28.1,0.8c6.7,0.2,10.6-5.3,10.8-12C848.3,1081.1,844.7,1075.4,838.1,1075.2z"/>
			<path class="st0" d="M883,1054.5l76.8-5.1l1.1,17.2l-51.2,3.4l0.6,8.6l51.2-3.4l1,15.6l-51.2,3.4l0.6,8.6l51.2-3.4l1.2,17.3
				l-76.8,5.1L883,1054.5z"/>
			<path class="st0" d="M1036.3,1037.2c13.3-2.5,26.7,7.1,28.9,20.8c2.6,13.7-6.7,27.2-20.1,29.4l-37.2,6.5l2.8,16.2l-25.3,4.4
				l-11.6-66.4L1036.3,1037.2z M1035.3,1069c1.5-0.3,2.7-1,3.6-2.3c0.9-1.3,1.2-2.8,0.9-4.3c-0.3-1.6-1-2.8-2.3-3.7
				c-1.3-1-2.7-1.3-4.1-1l-30.8,5.4l2,11.3L1035.3,1069z"/>
			<path class="st0" d="M1162,1036.4l1.4,4.7c7.2,24.4-10.2,37.2-33.9,44.1c-23.8,6.9-45.3,5.5-52.3-19l-1.4-4.7
				c-7.2-24.5,10.2-37.2,33.9-44.1C1133.5,1010.4,1154.9,1011.9,1162,1036.4z M1137.9,1045.1c-2.9-10.6-12-10-22.1-7.2
				c-10.1,3.1-18,7.5-14.8,18l0.5,1.6c2.9,10.6,12.1,10.1,22.2,7.3c10-3.1,18-7.5,14.8-18L1137.9,1045.1z"/>
			<path class="st0" d="M1218.9,978.8c12.4-5.5,27.6,0.7,32.9,13.6c2,4.7,2.6,9.4,1.8,14.2c-0.8,4.8-2.7,9-5.9,12.6l20.6,11.7
				l-25.1,10.8l-17.9-10.2l-21,9l6.5,15.1l-23.6,10.1l-26.6-61.9L1218.9,978.8z M1192.1,1011.8l4.5,10.6l28.7-12.3
				c1.4-0.6,2.4-1.6,3-3.1c0.6-1.5,0.5-3-0.1-4.4c-1.3-2.9-4.6-4.3-7.4-3.1L1192.1,1011.8z"/>
			<path class="st0" d="M1306.3,1009.5l-23.5-39.6l-26.2,15.6l-10.9-18.4l74.4-44.2l10.9,18.4l-26.2,15.6l23.5,39.6L1306.3,1009.5z"
				/>
			<path class="st0" d="M1347.3,901.1l40.3,54l-20.5,15.3l-40.3-54L1347.3,901.1z"/>
			<path class="st0" d="M1418.2,901.7l-17.7-47.7l20.9-19.9l22,72.1l-22.1,21l-70.8-25.7l20.9-19.9L1418.2,901.7z"/>
			<path class="st0" d="M1495.6,782.5l4,2.8c20.8,14.7,15.1,35.4,0.9,55.6c-14.4,20.2-32.1,32.4-52.8,17.6l-4-2.8
				c-20.9-14.7-15.1-35.4-0.9-55.7C1457.1,779.8,1474.8,767.7,1495.6,782.5z M1482.1,804.3c-8.9-6.5-15.7-0.4-21.8,8.1
				c-6,8.7-9.5,17.1-0.4,23.3l1.3,1c8.9,6.5,15.7,0.4,21.9-8.1c5.9-8.6,9.5-17,0.4-23.3L1482.1,804.3z"/>
			<path class="st0" d="M1512.4,729c7.5-16.8,17.9-40.4,33.7-34.3c18,6.9,14.5,28.6,6.3,50.2c-8.3,21.5-17.8,38.3-38.2,33.1
				l9.6-25.1c5.9-0.9,9.6-6.7,12.5-14.2c2.9-7.4,5.1-17.1,0.2-18.9c-2.8-1.1-6,6.2-10.2,15.7c-7.5,16.8-17.9,40.4-33.6,34.3
				c-18-6.9-14.6-28.6-6.3-50.2c8.4-21.5,17.7-38.4,38.3-33.1l-9.6,25.1c-6,0.8-9.6,6.7-12.5,14.2c-2.9,7.4-5.2,17-0.2,18.9
				C1505,745.8,1508.3,738.5,1512.4,729z"/>
		</g>
	</g>
	<ellipse class="st0" cx="861.9" cy="608.7" rx="586" ry="370.2"/>
	<linearGradient id="SVGID_1_" gradientUnits="userSpaceOnUse" x1="355.5" y1="605.9418" x2="1360.6628" y2="605.9418">
		<stop  offset="0" style="stop-color:#FFB400"/>
		<stop  offset="4.321380e-02" style="stop-color:#F3B400"/>
		<stop  offset="0.1209" style="stop-color:#D4B200"/>
		<stop  offset="0.2243" style="stop-color:#A1B001"/>
		<stop  offset="0.3494" style="stop-color:#5AAE01"/>
		<stop  offset="0.4916" style="stop-color:#02AA02"/>
		<stop  offset="0.4944" style="stop-color:#00AA02"/>
		<stop  offset="0.6335" style="stop-color:#009E4A"/>
		<stop  offset="0.759" style="stop-color:#009483"/>
		<stop  offset="0.8657" style="stop-color:#008DAC"/>
		<stop  offset="0.9495" style="stop-color:#0089C6"/>
		<stop  offset="1" style="stop-color:#0087CF"/>
	</linearGradient>
	<path class="st3" d="M1360.6,488.7c0,0,2-252.8-391.4-265H671.6v181.4c0,0-312.2,40.3-315.9,281.1c0,2.2-0.1,4.4-0.1,6.6
		c-0.9,26.9,1.5,277.9,385.4,295.3c0,0,234.4,0,293.5-71.3V766C1034.4,766,1366.7,751.7,1360.6,488.7z M1199.5,486.7
		c0,181.4-201.8,187.5-201.8,187.5H673.7v108h254.8v53c-16.4,31.6-79.1,43.6-124.4,48.2c-38.2,3.9-76.9,2.3-114.5-5.8
		c-179.9-38.5-174.9-181-174.9-181C522.8,509.1,745,505,745,505c181.4,2,183.5,51,183.5,51v24.5h106v-108
		c-36.7-44.8-212-67.3-212-67.3v-75.4h143.8c33.4,0,66.6,4.6,98.5,14.4C1204.2,386.8,1199.5,486.7,1199.5,486.7z"/>
	<path class="st0" d="M269.7,389.1v10.6c0,0.6-0.3,1.1-0.8,1.5l-45.1,34.4c-0.8,0.6-2,0.5-2.6-0.4c-0.6-0.8-0.5-2,0.4-2.6l44.3-33.9
		v-9.7c0-1,0.8-1.9,1.9-1.9C268.9,387.2,269.7,388.1,269.7,389.1z M239.7,366.6c0-5.2,4.2-9.4,9.4-9.4c5.2,0,9.4,4.2,9.4,9.4
		c0,5.2-4.2,9.4-9.4,9.4C243.9,376,239.7,371.7,239.7,366.6z M243.4,366.6c0,3.1,2.5,5.6,5.6,5.6c3.1,0,5.6-2.5,5.6-5.6
		s-2.5-5.6-5.6-5.6C245.9,360.9,243.4,363.5,243.4,366.6z M198.6,423.8c0.5,0.9,1.7,1.2,2.6,0.7c0,0,0,0,0,0l26.3-15
		c0,0,0.1-0.1,0.1-0.1c0.2-0.2,0.4-0.4,0.6-0.6c0,0,0.1,0,0.1-0.1l12.3-24.6c1.4-2.8,0.3-6.2-2.5-7.6c-0.8-0.4-1.6-0.6-2.5-0.6H219
		c-0.4,0-0.8,0.1-1.1,0.3l-26.3,18.8c-0.8,0.6-1,1.8-0.4,2.6c0.6,0.8,1.8,1,2.6,0.4l25.8-18.4h15.9c1,0,1.9,0.8,1.9,1.9
		c0,0.3-0.1,0.6-0.2,0.8L225.4,406h-25.1c-1,0-1.9,0.8-1.9,1.9c0,1,0.8,1.9,1.9,1.9h19.2l-20.2,11.5
		C198.4,421.8,198.1,422.9,198.6,423.8C198.6,423.8,198.6,423.8,198.6,423.8z"/>
	<path class="st0" d="M336.6,275.5c5.2,0,9.4-4.2,9.4-9.4s-4.2-9.4-9.4-9.4c-5.2,0-9.4,4.2-9.4,9.4S331.4,275.5,336.6,275.5z
		 M336.6,260.5c3.1,0,5.6,2.5,5.6,5.6s-2.5,5.6-5.6,5.6s-5.6-2.5-5.6-5.6S333.5,260.5,336.6,260.5z M284,331.8h40l5.7-17
		c0.3-1-0.2-2-1.2-2.4c-0.1,0-0.2-0.1-0.3-0.1l-9.6-1.4c-5.1-0.7-8.7-5.5-8-10.6c0.2-1.5,0.8-2.9,1.7-4.1l9.5-13.3
		c1.8-2.5,5.2-3.1,7.7-1.4l7.8,5.2h13.8l-1.2-9.1c-0.1-1,0.6-2,1.6-2.1c1-0.1,2,0.6,2.1,1.6l7.5,56.3c0.1,1-0.6,2-1.6,2.1
		c0,0,0,0,0,0c-0.1,0-0.2,0-0.2,0c-0.9,0-1.8-0.7-1.9-1.6l-5.8-43.4h-14.9c-0.4,0-0.7-0.1-1-0.3l-8.3-5.5c-0.8-0.6-2-0.4-2.6,0.5
		l-9.5,13.3c-1.8,2.5-1.2,6.1,1.3,7.9c0.7,0.5,1.6,0.9,2.5,1l9.6,1.4c3.1,0.4,5.2,3.3,4.8,6.3c0,0.4-0.1,0.7-0.2,1l-5.3,15.8h7.9
		l7-7c0.7-0.7,1.9-0.7,2.7,0c0.7,0.7,0.7,1.9,0,2.7l-7.5,7.5c-0.4,0.4-0.8,0.6-1.4,0.5H284c-1,0-1.9-0.8-1.9-1.9
		S282.9,331.8,284,331.8z M282.3,317.9l22.5-52.6c0.4-1,1.4-1.5,2.4-1.1c1,0.4,1.5,1.4,1.1,2.4c0,0.1,0,0.1-0.1,0.2l-2.5,5.9
		l2.2,6.5h9.6c-0.1,0.2-0.3,0.3-0.4,0.5l-2.3,3.3h-8.2c-0.8,0-1.5-0.5-1.8-1.3l-1.3-3.8l-17.8,41.5c-0.3,0.7-1,1.1-1.7,1.1
		c-0.3,0-0.5,0-0.8-0.2C282.3,320,281.8,318.9,282.3,317.9C282.3,317.9,282.3,317.9,282.3,317.9z M289.8,327
		c-0.5-0.9-0.1-2.1,0.8-2.5l14.5-7.2l3-6.1c0.8,1,1.8,1.9,2.9,2.7l-2.8,5.6c-0.2,0.4-0.5,0.7-0.8,0.8l-15,7.5
		C291.4,328.3,290.3,328,289.8,327L289.8,327z"/>
	<path class="st0" d="M396.2,234.4c0,4.5,1.8,8.8,5,12l6.3,6.3v10.5c0,3.1,2.5,5.6,5.6,5.6h30c3.1,0,5.6-2.5,5.6-5.6v-10.5l6.3-6.3
		c3.2-3.2,5-7.5,5-12v-27.6c0-9.3-7.6-16.9-16.9-16.9h-30c-9.3,0-16.9,7.6-16.9,16.9v3.8c0,2,0.7,4,1.9,5.6
		c-1.2,1.6-1.9,3.6-1.9,5.6V234.4z M445.1,263.2c0,1-0.8,1.9-1.9,1.9h-30c-1,0-1.9-0.8-1.9-1.9v-9.4h33.8V263.2z M400,221.9
		c0-3.1,2.5-5.6,5.6-5.6s5.6,2.5,5.6,5.6v11.3c0,1,0.8,1.9,1.9,1.9s1.9-0.8,1.9-1.9v-5.6h28.2c1,0,1.9-0.8,1.9-1.9
		c0-1-0.8-1.9-1.9-1.9H415v-1.9c0-5.2-4.2-9.4-9.4-9.4c-1.6,0-3.2,0.5-4.7,1.3c-0.6-0.9-1-2-1-3.2v-3.8c0-7.3,5.9-13.1,13.1-13.1h30
		c7.3,0,13.1,5.9,13.1,13.1v27.6c0,3.5-1.4,6.8-3.8,9.3l-6.3,6.3h-36l-6.3-6.3c-2.5-2.5-3.9-5.8-3.8-9.3V221.9z"/>
	<path class="st0" d="M685.6,120.6v37.6c0,5.2-4.2,9.4-9.4,9.4c-1,0-1.9-0.8-1.9-1.9c0-1,0.8-1.9,1.9-1.9c3.1,0,5.6-2.5,5.6-5.6
		v-37.6c0-3.1-2.5-5.6-5.6-5.6h-60.1c-3.1,0-5.6,2.5-5.6,5.6v37.6c0,3.1,2.5,5.6,5.6,5.6c1,0,1.9,0.8,1.9,1.9c0,1-0.8,1.9-1.9,1.9
		c-5.2,0-9.4-4.2-9.4-9.4v-37.6c0-5.2,4.2-9.4,9.4-9.4h60.1C681.4,111.2,685.6,115.4,685.6,120.6z M623.7,148.8h45.1
		c1,0,1.9,0.8,1.9,1.9c0,1-0.8,1.9-1.9,1.9h-5.8l-3.6,35.9c-0.1,1-0.9,1.7-1.9,1.7c-0.1,0-0.1,0-0.2,0c-1-0.1-1.8-1-1.7-2.1l0.5-5.4
		h-8.1v5.6c0,1-0.8,1.9-1.9,1.9c-1,0-1.9-0.8-1.9-1.9v-5.6h-8.1l0.6,5.4c0.1,1-0.6,1.9-1.7,2.1c-0.1,0-0.1,0-0.2,0
		c-1,0-1.8-0.7-1.9-1.7l-3.6-35.9h-5.8c-1,0-1.9-0.8-1.9-1.9C621.8,149.6,622.6,148.8,623.7,148.8z M648.1,163.8h9.9l1.1-11.3h-11.1
		V163.8z M648.1,178.8h8.4l1.1-11.3h-9.6V178.8z M644.3,167.6h-9.6l1.1,11.3h8.4V167.6z M633.2,152.5l1.1,11.3h9.9v-11.3H633.2z
		 M666.8,143.2v-11.3c0-3.1-2.5-5.6-5.6-5.6h-30c-3.1,0-5.6,2.5-5.6,5.6v11.3h3.8v-11.3c0-1,0.8-1.9,1.9-1.9h30c1,0,1.9,0.8,1.9,1.9
		v11.3H666.8z"/>
	<path class="st0" d="M777.1,171.8c21.8,0,39.4-17.7,39.4-39.4s-17.7-39.4-39.4-39.4s-39.4,17.7-39.4,39.4
		C737.7,154.1,755.4,171.8,777.1,171.8z M777.1,168c-3.5,0-6.9-0.5-10.3-1.5l7.6-7.6l8.6,8.6C781.1,167.8,779.1,168,777.1,168z
		 M766.2,134.7l6.5-10.9l10.7,2.1l2.2,10.8l-10.9,6.5L766.2,134.7z M787.4,166.5l-11-11v-8.8l11.7-7l11.5,2.3l4.5,13.7
		C799.7,160.8,793.9,164.5,787.4,166.5z M806.9,152l-3.5-10.5l8.8-2.9C811.4,143.3,809.6,147.9,806.9,152L806.9,152z M812.8,132.3
		c0,0.7-0.1,1.4-0.1,2.1l-11.8,3.9l-11.6-2.3l-2.2-11.1l9.3-9.2l13.2,1.9C811.7,122.2,812.8,127.3,812.8,132.3z M807.4,113.5
		l-10-1.4l-1.4-10C800.6,105,804.5,108.9,807.4,113.5z M775,96.8c0.7,0,1.4-0.1,2.1-0.1c5.1,0,10.1,1.1,14.7,3.2l1.9,13.2l-9.2,9.2
		l-11.1-2.2l-2.3-11.6L775,96.8z M770.9,97.2l-2.9,8.8l-10.5-3.5C761.6,99.9,766.1,98.1,770.9,97.2L770.9,97.2z M753.9,105.3
		l13.6,4.6l2.3,11.5l-7,11.7H754l-11-11C744.9,115.6,748.7,109.8,753.9,105.3z M741.4,132.3c0-2,0.2-4,0.5-5.9l8.6,8.6l-7.6,7.6
		C742,139.3,741.4,135.8,741.4,132.3z M754,136.9h9.1l9.5,9.5v9.1l-9.6,9.6c-8.3-3.6-15-10.3-18.6-18.6L754,136.9z"/>
	<path class="st0" d="M876.9,163.7c8.3,0,15-6.7,15-15s-6.7-15-15-15c-8.3,0-15,6.7-15,15S868.6,163.7,876.9,163.7z M876.9,137.4
		c6.2,0,11.3,5,11.3,11.3s-5,11.3-11.3,11.3s-11.3-5-11.3-11.3S870.6,137.4,876.9,137.4z M925.7,133.6c-8.3,0-15,6.7-15,15
		s6.7,15,15,15s15-6.7,15-15S934,133.6,925.7,133.6z M925.7,159.9c-6.2,0-11.3-5-11.3-11.3s5-11.3,11.3-11.3s11.3,5,11.3,11.3
		S931.9,159.9,925.7,159.9z M921.9,101.7c0-5.2-4.2-9.4-9.4-9.4c-5.2,0-9.4,4.2-9.4,9.4c0,5.2,4.2,9.4,9.4,9.4
		C917.7,111.1,921.9,106.9,921.9,101.7z M906.9,101.7c0-3.1,2.5-5.6,5.6-5.6s5.6,2.5,5.6,5.6c0,3.1-2.5,5.6-5.6,5.6
		S906.9,104.8,906.9,101.7z M911.9,126.1c-2.5,0-4.9-1-6.6-2.7l-6.4-6.4c-0.7-0.7-1.9-0.7-2.7,0c0,0,0,0,0,0l-5.2,5.2
		c-0.7,0.7-0.7,1.9,0,2.7c0.1,0.1,0.2,0.2,0.4,0.3l10.1,6.1c3.4,2,5.1,6,4.4,9.9l-2.7,13.6c-0.2,0.9-0.9,1.5-1.8,1.5
		c-0.1,0-0.3,0-0.4,0c-1-0.2-1.7-1.2-1.5-2.2l2.7-13.6c0.5-2.3-0.6-4.7-2.6-5.9l-10.1-6.1c-2.7-1.6-3.5-5.1-1.9-7.7
		c0.2-0.4,0.5-0.8,0.8-1.1l5.2-5.2c2.2-2.2,5.8-2.2,8,0c0,0,0,0,0,0l6.4,6.4c1.1,1.1,2.5,1.7,4,1.6h11.9c1,0,1.9,0.8,1.9,1.9
		c0,1-0.8,1.9-1.9,1.9H911.9z"/>
	<path class="st0" d="M1049.2,103.3c-13.7-0.1-26.9,5.4-36.4,15.2c-24.2,24.2-13.3,54.7-9.8,58.2c6.6,3.9,14.3,5.8,22,5.5
		c13.6,0,26.7-5.5,36.2-15.3c9.8-9.6,15.3-22.7,15.2-36.4c0-10.6-3.2-19.5-5.4-21.7C1068.7,106.5,1059.8,103.3,1049.2,103.3z
		 M1022.4,178.4c-5.9,0.1-11.6-1.4-16.7-4.3c-2.9-5.1-4.4-10.9-4.3-16.7c0.8-0.1,1.5-0.2,2.3-0.2c10.5,0,19,8.5,19,19
		C1022.5,176.9,1022.5,177.6,1022.4,178.4z M1058.5,164.3c-8.5,8.8-20.2,13.8-32.4,14.2c0.1-0.8,0.2-1.5,0.2-2.3
		c0-12.6-10.2-22.7-22.7-22.7c-0.8,0-1.5,0.1-2.3,0.2c0.3-12.2,5.4-23.9,14.2-32.4c8.5-8.8,20.2-13.8,32.4-14.1
		c-0.1,0.8-0.2,1.5-0.2,2.3c0,12.6,10.2,22.7,22.7,22.7c0.8,0,1.5-0.1,2.3-0.2C1072.3,144.1,1067.3,155.7,1058.5,164.3L1058.5,164.3
		z M1070.4,128.3c-10.5,0-19-8.5-19-19c0-0.7,0.1-1.5,0.2-2.2c5.8,0,11.6,1.5,16.7,4.3c2.8,5.1,4.3,10.9,4.3,16.7
		C1071.8,128.2,1071.1,128.3,1070.4,128.3L1070.4,128.3z M1049.6,130.1c0.7,0.7,0.7,1.9,0,2.7c0,0,0,0,0,0l-5.8,5.8l2.4,2.4
		c0.7,0.7,0.7,1.9,0,2.7c-0.4,0.4-0.8,0.6-1.3,0.6c-0.5,0-1-0.2-1.3-0.6l-2.4-2.4l-5.7,5.7l2.4,2.4c0.7,0.7,0.7,1.9,0,2.7
		c-0.7,0.7-1.9,0.7-2.6,0l-2.4-2.4l-5.8,5.8c-0.7,0.7-1.9,0.7-2.7,0c-0.7-0.7-0.7-1.9,0-2.7l5.8-5.8l-2.4-2.4
		c-0.7-0.7-0.7-1.9,0-2.7c0.7-0.7,1.9-0.7,2.6,0l2.4,2.4l5.7-5.7l-2.4-2.4c-0.7-0.7-0.7-1.9,0-2.7c0.7-0.7,1.9-0.7,2.6,0l2.4,2.4
		l5.8-5.8C1047.6,129.4,1048.8,129.4,1049.6,130.1C1049.6,130.1,1049.6,130.1,1049.6,130.1L1049.6,130.1z"/>
	<path class="st0" d="M1135.9,188.1c0-1,0.8-1.9,1.9-1.9c3.2,0.1,6.3-0.8,8.9-2.6c2.1-1.7,5.2-1.7,7.3,0c5.5,3.3,12.3,3.3,17.7,0
		c2.1-1.7,5.2-1.7,7.3,0c2.6,1.8,5.7,2.7,8.9,2.6c3.2,0.1,6.3-0.8,8.9-2.6c2.1-1.7,5.2-1.7,7.3,0c2.6,1.8,5.7,2.7,8.9,2.6
		c1,0,1.9,0.8,1.9,1.9c0,1-0.8,1.9-1.9,1.9c-4,0.1-8-1.1-11.2-3.4c-0.8-0.6-1.9-0.6-2.6,0c-3.3,2.4-7.2,3.6-11.2,3.4
		c-4,0.1-8-1.1-11.2-3.4c-0.8-0.6-1.9-0.6-2.6,0c-3.3,2.4-7.2,3.6-11.2,3.4c-4,0.1-8-1.1-11.2-3.4c-0.8-0.6-1.9-0.6-2.6,0
		c-3.2,2.3-7.2,3.6-11.2,3.4C1136.8,189.9,1135.9,189.1,1135.9,188.1z M1137.8,201.2c4,0.1,8-1.1,11.2-3.4c0.8-0.6,1.9-0.6,2.6,0
		c3.3,2.4,7.2,3.6,11.2,3.4c4,0.1,8-1.1,11.2-3.4c0.8-0.6,1.9-0.6,2.6,0c3.3,2.4,7.2,3.6,11.2,3.4c4,0.1,8-1.1,11.2-3.4
		c0.8-0.6,1.9-0.6,2.6,0c3.2,2.3,7.2,3.6,11.2,3.4c1,0,1.9-0.8,1.9-1.9c0-1-0.8-1.9-1.9-1.9c-3.2,0.1-6.3-0.8-8.9-2.6
		c-2.1-1.7-5.2-1.7-7.3,0c-2.6,1.8-5.7,2.7-8.9,2.6c-3.2,0.1-6.3-0.8-8.9-2.6c-2.1-1.7-5.2-1.7-7.3,0c-2.6,1.8-5.7,2.7-8.9,2.6
		c-3.2,0.1-6.3-0.8-8.9-2.6c-2.1-1.7-5.2-1.7-7.3,0c-2.6,1.8-5.7,2.7-8.9,2.6c-1,0-1.9,0.8-1.9,1.9
		C1135.9,200.4,1136.8,201.2,1137.8,201.2z M1194.1,148.6c5.2,0,9.4,4.2,9.4,9.4c0,5.2-4.2,9.4-9.4,9.4c-5.2,0-9.4-4.2-9.4-9.4
		C1184.7,152.8,1188.9,148.6,1194.1,148.6z M1194.1,152.4c-3.1,0-5.6,2.5-5.6,5.6s2.5,5.6,5.6,5.6s5.6-2.5,5.6-5.6
		S1197.2,152.4,1194.1,152.4z M1155.7,160.1l-15,7.5c-0.9,0.5-1.3,1.6-0.9,2.5c0.5,0.9,1.6,1.3,2.5,0.9c0,0,0,0,0,0l14.6-7.3h22.1
		c1,0,1.9-0.8,1.9-1.9c0-0.4-0.1-0.8-0.4-1.1l-9-12c-1.8-2.4-4.6-3.7-7.5-3.8h-18.8c-1,0-1.9,0.8-1.9,1.9s0.8,1.9,1.9,1.9h18.8
		c1.8,0,3.4,0.8,4.5,2.3l6.8,9h-18.8C1156.3,159.9,1156,160,1155.7,160.1z"/>
	<path class="st0" d="M203.8,474.1c-15.6,0-28.2,12.6-28.2,28.2s12.6,28.2,28.2,28.2s28.2-12.6,28.2-28.2
		C232,486.7,219.4,474.1,203.8,474.1z M203.8,526.6c-13.5,0-24.4-10.9-24.4-24.4s10.9-24.4,24.4-24.4c13.5,0,24.4,10.9,24.4,24.4
		C228.2,515.7,217.3,526.6,203.8,526.6z M194.4,507.9c0,1-0.8,1.9-1.9,1.9s-1.9-0.8-1.9-1.9c0-1,0.8-1.9,1.9-1.9
		S194.4,506.8,194.4,507.9z M205.7,507.9c0,1-0.8,1.9-1.9,1.9c-1,0-1.9-0.8-1.9-1.9c0-1,0.8-1.9,1.9-1.9
		C204.8,506,205.7,506.8,205.7,507.9z M216.9,507.9c0,1-0.8,1.9-1.9,1.9c-1,0-1.9-0.8-1.9-1.9c0-1,0.8-1.9,1.9-1.9
		C216.1,506,216.9,506.8,216.9,507.9z M200,515.4c0,1-0.8,1.9-1.9,1.9c-1,0-1.9-0.8-1.9-1.9c0-1,0.8-1.9,1.9-1.9
		C199.2,513.5,200,514.3,200,515.4z M211.3,515.4c0,1-0.8,1.9-1.9,1.9s-1.9-0.8-1.9-1.9c0-1,0.8-1.9,1.9-1.9
		S211.3,514.3,211.3,515.4z M156.8,475.6l9.7,45.9l8.7-1.2c0.7,1.2,1.6,2.3,2.4,3.4l-10.4,1.5l2.4,11.4c1.2,5.4,5.6,9.6,11.1,10.3
		l15.8,2.1c7.7,1.3,15-3.8,16.4-11.5c0.2-0.9,0.2-1.8,0.2-2.8c1.3-0.4,2.5-0.8,3.7-1.3c0,0.1,0.1,0.3,0.1,0.4
		c0.6,9.9-6.9,18.5-16.8,19.1c-0.4,0-0.8,0-1.1,0c-1,0-2-0.1-3-0.2l-15.8-2.1c-7.1-1-12.8-6.3-14.3-13.3l-12.8-61
		c-0.3-1,0.3-2,1.3-2.3c1-0.3,2,0.3,2.3,1.3C156.8,475.4,156.8,475.5,156.8,475.6z"/>
	<path class="st0" d="M1370.1,251.8c-21.8,0-39.4,17.7-39.4,39.4s17.7,39.4,39.4,39.4s39.4-17.7,39.4-39.4
		C1409.5,269.5,1391.8,251.8,1370.1,251.8z M1405.5,295.1c-1.2-0.5-2.5-0.9-3.7-1.2c-1-0.2-2,0.4-2.2,1.4c-0.2,1,0.4,2,1.4,2.2
		c1.3,0.3,2.6,0.7,3.9,1.3c-3,13.6-13.6,24.2-27.2,27.2c-0.6-1.3-1-2.6-1.3-3.9c-0.2-1-1.2-1.7-2.2-1.4c-1,0.2-1.7,1.2-1.4,2.2
		c0.3,1.3,0.7,2.6,1.2,3.8c-1.3,0.1-2.6,0.2-3.9,0.2c-19.7,0-35.7-16-35.7-35.7c0-1.3,0.1-2.6,0.2-3.9c1.2,0.5,2.5,0.9,3.8,1.2
		c0.1,0,0.2,0,0.4,0c1,0,1.9-0.9,1.9-1.9c0-0.9-0.6-1.6-1.5-1.8c-1.4-0.3-2.7-0.7-3.9-1.3c3-13.6,13.6-24.2,27.2-27.2
		c0.6,1.2,1,2.5,1.3,3.9c0.2,0.9,0.9,1.5,1.8,1.5c0.1,0,0.3,0,0.4,0c1-0.2,1.7-1.2,1.4-2.2c0,0,0,0,0,0c-0.3-1.3-0.7-2.5-1.2-3.7
		c19.5-2.2,37.2,11.9,39.3,31.5C1405.8,289.8,1405.8,292.5,1405.5,295.1L1405.5,295.1z M1378.9,303.7c0.9,0.6,1.1,1.7,0.5,2.6
		c-1.5,2.3-2.6,4.9-3.1,7.6c-0.2,0.9-0.9,1.5-1.8,1.5c-0.1,0-0.2,0-0.4,0c-1-0.2-1.7-1.2-1.5-2.2c0,0,0,0,0,0c0.6-3.2,1.9-6.2,3.7-9
		C1376.9,303.4,1378,303.1,1378.9,303.7C1378.9,303.7,1378.9,303.7,1378.9,303.7L1378.9,303.7z M1394.3,295.3c0.2,1-0.5,2-1.5,2.2
		c-2.7,0.5-5.3,1.5-7.6,3.1c-0.9,0.6-2,0.3-2.6-0.5c0,0,0,0,0,0c-0.6-0.9-0.3-2,0.5-2.6c2.7-1.8,5.8-3,9-3.6
		C1393.1,293.6,1394.1,294.3,1394.3,295.3C1394.3,295.3,1394.3,295.3,1394.3,295.3L1394.3,295.3z M1367.5,269.2
		c-0.6,3.2-1.8,6.3-3.6,9c-0.6,0.9-1.7,1.1-2.6,0.5s-1.1-1.7-0.5-2.6c1.5-2.3,2.6-4.9,3.1-7.6c0.2-1,1.2-1.7,2.2-1.5
		C1367,267.2,1367.7,268.1,1367.5,269.2C1367.5,269.2,1367.5,269.2,1367.5,269.2z M1357.6,282.4c0.6,0.9,0.3,2-0.5,2.6
		c-2.7,1.8-5.8,3.1-9,3.7c-1,0.2-2-0.4-2.2-1.4c-0.2-1,0.4-2,1.4-2.2c0,0,0.1,0,0.1,0c2.7-0.5,5.3-1.6,7.6-3.1
		C1355.8,281.3,1357,281.5,1357.6,282.4C1357.6,282.4,1357.6,282.4,1357.6,282.4z"/>
	<g>
		<path class="st1" d="M1111.7,857.4c4.7,2.7,8.3,6.3,11,11c2.7,4.7,4,9.9,4,15.5c0,5.7-1.4,10.9-4.1,15.6
			c-2.7,4.7-6.4,8.5-11.1,11.2c-4.7,2.7-9.9,4.1-15.6,4.1c-5.7,0-10.9-1.4-15.5-4.1c-4.7-2.7-8.4-6.4-11.1-11.1s-4-9.9-4-15.5
			c0-5.6,1.3-10.8,4-15.5c2.7-4.7,6.4-8.4,11.1-11.1c4.7-2.7,9.9-4.1,15.7-4.1C1101.8,853.4,1107,854.7,1111.7,857.4z M1108.6,905.8
			c3.8-2.2,6.8-5.3,9-9.1c2.2-3.9,3.3-8.1,3.3-12.8c0-4.7-1.1-8.9-3.2-12.7c-2.1-3.8-5.1-6.7-8.8-8.9c-3.8-2.2-8-3.3-12.7-3.3
			s-8.9,1.1-12.7,3.3c-3.8,2.2-6.7,5.2-8.9,9.1c-2.1,3.8-3.2,8.1-3.2,12.7c0,4.6,1.1,8.9,3.2,12.7c2.1,3.8,5.1,6.8,8.8,9.1
			c3.7,2.2,7.9,3.3,12.6,3.3C1100.5,909.2,1104.8,908.1,1108.6,905.8z M1110.5,885.5c-1.1,1.8-2.7,3.1-4.7,4.1l7.4,11.3h-9.1
			l-6.4-9.8h-0.3h-5.7v9.8h-9.1v-33.8h14.7c4.6,0,8.2,1.1,10.8,3.3c2.6,2.2,3.9,5.1,3.9,8.7C1112.1,881.7,1111.5,883.8,1110.5,885.5
			z M1096.8,884.4c2,0,3.6-0.4,4.7-1.3c1.1-0.9,1.7-2.2,1.7-3.9c0-1.7-0.6-3-1.7-3.9c-1.1-0.9-2.7-1.4-4.7-1.4h-5.1v10.5H1096.8z"/>
	</g>
	<path class="st0" d="M1502.4,350.2l-47.6,47.6c-7.1-5.7-17.3-5.2-23.7,1.2c-0.7,0.7-0.7,1.9,0,2.7c0,0,0,0,0,0l9.9,9.9l-13.7,13.7
		c-0.7,0.7-0.7,1.9,0,2.7c0.7,0.7,1.9,0.7,2.7,0l13.7-13.7l9.9,9.9c0.7,0.7,1.9,0.7,2.7,0c0,0,0,0,0,0c6.4-6.4,6.9-16.7,1.2-23.7
		l47.6-47.6c0.7-0.7,0.7-1.9,0-2.7C1504.4,349.5,1503.2,349.5,1502.4,350.2z M1454.9,420.2l-19.7-19.7c6.2-4.7,15-3.5,19.7,2.7
		C1458.7,408.2,1458.7,415.1,1454.9,420.2z M1491.4,411.7l9.9-9.9c0.7-0.7,0.7-1.9,0-2.7c0,0,0,0,0,0c-6.4-6.4-16.7-6.9-23.7-1.2
		l-4.8-4.8l-2.7,2.7l4.8,4.8c-5.7,7.1-5.2,17.3,1.2,23.7c0.7,0.7,1.9,0.7,2.7,0c0,0,0,0,0,0l9.9-9.9l13.7,13.7
		c0.7,0.7,1.9,0.7,2.7,0c0.7-0.7,0.7-1.9,0-2.7L1491.4,411.7z M1477.6,420.2c-4.7-6.2-3.5-15,2.7-19.7c5-3.8,12-3.8,17,0
		L1477.6,420.2z M1430,350.2l32.2,32.2l-2.7,2.7l-32.2-32.2c-0.7-0.7-0.7-1.9,0-2.7C1428.1,349.5,1429.2,349.5,1430,350.2
		L1430,350.2z"/>
	<path class="st0" d="M1532.1,475.4c0,5.2,4.2,9.4,9.4,9.4c5.2,0,9.4-4.2,9.4-9.4c0-5.2-4.2-9.4-9.4-9.4
		C1536.3,466,1532.1,470.2,1532.1,475.4z M1541.4,469.7c3.1,0,5.6,2.5,5.6,5.6s-2.5,5.6-5.6,5.6s-5.6-2.5-5.6-5.6
		S1538.3,469.7,1541.4,469.7z M1545.2,544.9h7.5c1,0,1.9-0.8,1.9-1.9c0-1-0.8-1.9-1.9-1.9h-6.6l-21.9-30l10.4-18.2l4.8,2.4
		c0.4,0.2,0.7,0.5,0.8,0.8l2.6,5.2l-10.3,10.3c-0.7,0.7-0.7,1.9,0,2.7s1.9,0.7,2.7,0l11.3-11.3c0.6-0.6,0.7-1.4,0.4-2.2l-3.2-6.4
		c-0.6-1.1-1.4-2-2.5-2.5l-17-8.5c-2.8-1.4-6.2-0.3-7.6,2.5c-0.2,0.4-0.4,0.9-0.5,1.4l-2.8,13.9c-0.1,0.5,0,1,0.3,1.5l30,41.3
		C1544,544.6,1544.6,544.9,1545.2,544.9z M1517.2,501.2l2.6-13.1c0.2-1,1.2-1.7,2.2-1.5c0.2,0,0.3,0.1,0.5,0.2l8.8,4.4l-9.4,16.5
		L1517.2,501.2z M1524.6,542.5l2.8-11.2l2.9,4l-2,8.2c-0.2,0.8-1,1.4-1.8,1.4c-0.2,0-0.3,0-0.5-0.1
		C1525,544.6,1524.4,543.5,1524.6,542.5L1524.6,542.5z M1498.6,544.1c-0.6-0.8-0.5-2,0.4-2.6l0,0l18-13.5v-11l3.8,5.2v6.8
		c0,0.6-0.3,1.1-0.8,1.5l-18.8,14C1500.4,545.1,1499.3,544.9,1498.6,544.1z"/>
	<path class="st0" d="M1286.6,187.6c-6.3,0.7-12.1,3.5-16.5,8c-4.5,4.4-7.3,10.2-8,16.5c-0.2,2.4,0,4.8,0.5,7.1l-3.7,14.8
		l-17.1,17.1c-0.6,0.6-0.6,1.6,0,2.2c0.6,0.6,1.6,0.6,2.2,0l17.1-17.1l14.9-3.7c1.6,0.4,3.2,0.6,4.9,0.6c0.7,0,1.4,0,2.1-0.1
		c6.3-0.7,12.1-3.5,16.5-8c9.6-9.6,10.8-24,2.7-32.1C1298.1,188.8,1292.3,186.9,1286.6,187.6z M1262.5,232.6l2.1-8.5
		c0.8,1.3,1.7,2.5,2.8,3.6c1.1,1.1,2.3,2,3.7,2.7L1262.5,232.6z M1297.3,222.8c-3.9,4-9,6.5-14.5,7.1c-4.8,0.6-9.6-1-13.1-4.4
		c-6.9-6.9-5.7-19.3,2.7-27.7c4.3-4.4,10.2-7,16.3-7.2c4.2-0.1,8.3,1.5,11.4,4.5C1306.9,202,1305.7,214.4,1297.3,222.8z"/>
	<path class="st0" d="M559.9,152.3c-0.7-2.1-2.7-3.4-4.9-3.1c-2.2,0.4-4.5-0.2-6.1-1.7c-0.8-0.8-1.3-1.7-1.6-2.8
		c-0.4-1.6-1.7-2.9-3.3-3.4c-1.6-0.4-3.3,0-4.5,1.2l-18.9,18.9c-2.9,2.9-2.9,7.5,0,10.4l31,31c2.9,2.9,7.5,2.9,10.4,0l3.9-3.9
		c7.1-7,7.3-18.4,0.3-25.5L559.9,152.3z M559.4,200.2c-1.4,1.4-3.7,1.4-5.1,0l-31-31c-1.4-1.4-1.4-3.7,0-5.1l2.5-2.5l36.1,36.1
		L559.4,200.2z M564.5,194.9l-36-36l13.7-13.7c0.2-0.2,0.5-0.3,0.8-0.3c0.3,0.1,0.6,0.4,0.6,0.7c0.4,1.7,1.3,3.3,2.5,4.5
		c2.5,2.3,5.9,3.4,9.2,2.8c0.4-0.1,0.7,0.2,0.8,0.5l6.4,21.5c0.1,0.3,0.3,0.6,0.5,0.8C568.5,180.8,569,189.1,564.5,194.9z
		 M545.8,205h-36.4c-1,0-1.9-0.8-1.9-1.9c0-1,0.8-1.9,1.9-1.9H542L545.8,205z M527,186.2l3.8,3.8h-28.9c-1,0-1.9-0.8-1.9-1.9
		c0-1,0.8-1.9,1.9-1.9H527z M492.5,173c0-1,0.8-1.9,1.9-1.9h19.4c0.5,1.4,1.3,2.6,2.2,3.8h-21.6C493.3,174.9,492.5,174.1,492.5,173z
		"/>
</g>
</svg>
